<svg xmlns="http://www.w3.org/2000/svg" viewBox="0 0 1200 160" width="1200" height="160"><g fill="#fff"><path d="M168.2 97.9h7.7l3.3-9h15.5l3.3 9h7.9l-15.2-40.5h-7.4l-15.1 40.5zm18.7-30.7l5.5 15.2h-10.9l5.4-15.2zm30.5 30.7V80.6c2-2 4.9-4.3 7.2-4.3 2.1 0 2.8 1.6 2.8 5.3v16.3h7.5V78.4c0-5.9-2.8-8.6-7.4-8.6-4.7 0-8.2 2.8-10.4 5.2v-5.1l-7.2 1.2v26.8h7.5zm23.9 14.3c6.9-.7 11.8-6.6 14.1-12.3l11.3-29.4h-7.5l-6.3 18-6.4-18h-7.8l10.5 26.7-1 2.3c-1.7 3.7-5.1 6.3-9.2 6.9l2.3 5.8zm35.4-14.1h7.3l6.1-17.9 6.2 17.9h7.3l8.9-27.6H305l-5.4 19-6.2-19h-6.3l-6.3 19-5.3-19h-7.7l8.9 27.6zm46.4.5c3.4.2 6.7-1.5 8.6-4.3 1 2.1 3.1 3.9 7.6 4l2.2-5.8c-.9 0-1.7-.3-2.2-.9-.6-.6-.9-1.5-.9-2.3V78.7c0-6-2.2-8.9-9.2-8.9-4.5-.1-8.9 1.1-12.6 3.5l1.8 5.3s4.3-3.2 8.7-3.2c3.3 0 3.8 1.9 3.8 4.5v1c-10 1.3-16.1 4.6-16.1 10.6 0 4.1 3.3 7.1 8.3 7.1zm-.6-7.7c0-2.9 2.4-4.9 8.4-5.7v4.4c-1.7 1.9-3.6 3.6-5.8 3.6-1.4 0-2.6-.6-2.6-2.3zm22.8 21.3c7-.7 11.9-6.6 14.1-12.3l11.4-29.4h-7.6l-6.3 18-6.4-18h-7.8l10.5 26.7-.9 2.3c-1.8 3.7-5.2 6.3-9.3 6.9l2.3 5.8zm31.9-13.6c2.6 0 4.6-2.1 4.6-4.6 0-2.6-2.1-4.6-4.6-4.6-1.3 0-2.5.5-3.3 1.4-.9.8-1.4 2-1.4 3.3.1 2.5 2.1 4.6 4.7 4.5zm20.4-.7V81h13.9v-6.4h-13.9V64.2h17.5v-6.5h-25.3v40.2h7.8zm23.4 0h7.5l1-31.4 11.1 31.4h5l11.2-31.4 1.1 31.4h7.6L464 57.7h-11l-9.7 27.9-9.7-27.9h-11.1L421 97.9zm93.6-44.6c3.5 2.6 6.8 5.6 9.7 8.9l4.3-4.3c-3-3.2-6.2-6.1-9.8-8.7l-4.2 4.1zm-3.8 19.1h7.8v21.1c0 1.3-.6 2.6-1.6 3.4l2.4 5.7c4.5-2.9 8.8-6.2 12.7-9.7l-1.7-6.7c-2 1.9-3.9 3.6-5.7 5.2V66.3h-13.9v6.1zm21.6 1.2v6h3.4c1.6 4.8 4.4 9.2 8 12.8-4.9 3-10.2 5.3-15.7 6.8l3.5 5.3c6.1-1.6 12-4.3 17.3-7.9 4.6 3.3 9.6 6 14.8 8l3.4-5.4c-4.8-1.6-9.3-3.8-13.6-6.4 3.8-3.8 6.7-8.4 8.3-13.5v-5.7h-29.4zm23.1 6c-1.8 3.5-4.2 6.7-7.1 9.3-3-2.5-5.2-5.7-6.7-9.3h13.8zm-19-21.2c0 4-2.6 7-7.7 9.1l4.3 4.8c6.3-3.4 9.6-8.3 9.6-14.5v-1.7h9.3v8.1c0 4.2 2.2 6.3 6.7 6.3h6.9v-5.7h-5.2c-1.5 0-2.2-.8-2.2-2.1V50.2h-21.7v8.2zm53.6 13.7h15.5v32.3h6.5V72.1h14.8v-6.3h-14.8V48.3h-6.5v17.5h-15.5v6.3zm-15.1-19c3.6 2.6 7 5.5 9.9 8.9l4.3-4.4c-3-3.2-6.3-6.1-9.7-8.8l-4.5 4.3zm-3.9 19.1h8.2v21.4c0 1.3-.6 2.5-1.6 3.3l2.4 5.7c4.5-2.9 8.7-6.2 12.6-9.8l-1.7-6.5c-2 1.9-3.8 3.6-5.6 5.1V66.2h-14.3v6zm62 12.8h23.2v11c0 .6-.2 1.1-.6 1.6-.4.4-.9.6-1.5.5-2.2 0-4.4-.2-6.6-.4l1.4 6.1h7.4c4.1 0 6.2-2.1 6.2-6.2V85h22.6v-6.1h-22.6V74h-6.3v4.9h-23.2V85zm35.5 5.1c4.6 3.8 8.7 8.1 12.4 12.9l4.8-4.9c-3.9-4.4-8.2-8.4-12.9-12.1l-4.3 4.1zm-23.8-4.4c-3.8 4.7-8.3 8.6-13.3 11.7l4.1 5.3c5.2-3.6 9.8-8 13.6-13l-4.4-4zm6.8-37.5c-.3 2.1-.6 4.2-1.1 6.3h-15.3v6h13.2c-.6 1.1-1.2 2.2-1.9 3.1-2.7 3.6-7.2 6.3-13.5 8.2l2.5 5.8c7.7-2.4 13.2-5.7 16.2-9.9 1.5-2.2 2.8-4.6 3.7-7.2h11.3v7.8c0 4.3 2.4 6.5 7.1 6.5h4.6c3.8 0 5.9-1.1 6.7-3.2.4-1.1.9-3.8 1.5-8.2l-6.1-1.9c0 2-.2 4.1-.5 6.1-.1.8-.8 1.3-1.6 1.3h-3.7c-.4.1-.9-.1-1.2-.4-.3-.3-.5-.8-.4-1.2V54.5h-16c.4-1.9.6-3.8.8-5.6l-6.3-.7zm91.1 28.7l3.4-5.3c-4.8-3.9-10-7.2-15.5-10 .5-2.2.8-4.4.9-6.7v-6.3h-6.3v6.3c-.1 3.7-1.2 7.4-3.2 10.5-2 2.6-5.7 4.7-11.3 6.4l3.4 5.3c6-1.8 10.3-4.4 13-7.8.6-.8 1.1-1.7 1.7-2.6 5 2.9 9.7 6.3 13.9 10.2zm-17.3.9c-.2 5.5-1.5 10-3.6 13.4-2.3 3.2-6.5 5.9-12.9 8l3.5 5.3c6.6-2.1 11.4-5.3 14.4-9.3.9-1.4 1.7-2.8 2.3-4.3 2.8 5.9 7.8 10.4 15 13.5l3.8-5.5c-9.8-3.2-15.2-9.2-16.4-18 .2-1 .2-2 .3-3.1v-5h-6.4v5zm-8.4-.2c-1.1 3.8-2.8 7.3-4.9 10.6l5 2.8c2.2-3.5 3.9-7.4 5.1-11.4l-5.2-2zm0-26.9c-1.4 4.2-3.3 8.1-5.7 11.8l5 2.7c2.6-3.8 4.7-8 6.1-12.4l-5.4-2.1zm22.7-.4c-1.2 3.8-2.9 7.3-5 10.6l5.1 2.9c2.3-3.6 4.1-7.4 5.3-11.4l-5.4-2.1zm.3 27.4c-1.2 3.7-2.9 7.2-5 10.4l5.2 2.9c2.1-3.5 3.9-7.3 5.2-11.2l-5.4-2.1zm-44.4-24.6c3.6 2.6 6.9 5.5 9.8 8.8l4.3-4.3c-3-3.2-6.2-6.1-9.7-8.7l-4.4 4.2zm-4.2 13.1v6h7.8v21.4c0 1.3-.6 2.5-1.5 3.3l2.4 5.7c3.9-2.9 7.5-6.1 10.9-9.5l-1.7-6.6c-1.3 1.4-2.7 2.8-3.9 4.1V66.2h-14zM81.4 128.7c-22.7 0-41.2-18.2-41.2-40.5 0-22 18-39.9 40.3-40.4V35.4c0-1.7.9-3.2 2.4-3.9 1.5-.8 3.2-.7 4.6.2l33.1 22.1c1.6 1.1 2.6 2.9 2.6 4.9 0 1.9-1 3.7-2.7 4.8l-4.4 3c4.3 6.4 6.5 14 6.5 21.7 0 22.3-18.5 40.5-41.2 40.5zm0-75c-19.5 0-35.3 15.5-35.3 34.6 0 19 15.8 34.5 35.3 34.5 19.4 0 35.2-15.5 35.2-34.5 0-6.6-1.9-13-5.4-18.5L87.5 85.5c-1.4.9-3.1 1-4.6.2-1.5-.7-2.4-2.2-2.4-3.9V61.7c.1-1.6 1.5-2.9 3.1-2.9 1.7 0 3.1 1.3 3.2 2.9v17.4l23.3-15.7c.1-.1.2-.2.3-.2l6.8-4.5-30.4-20.6v15.7l-3.3-.1h-2.1zm0 52.2c-6.4.2-12.4-3.2-15.6-8.7-3.3-5.5-3.3-12.4 0-17.9 3.2-5.5 9.2-8.9 15.6-8.8.8 0 1.7.1 2.5.2 1.1.2 2 .8 2.4 1.8.4 1 .2 2.1-.5 3-.6.8-1.7 1.2-2.7 1-.6-.1-1.2-.1-1.7-.1-4.3-.1-8.3 2.2-10.5 5.9-2.2 3.6-2.2 8.2 0 11.9 2.2 3.7 6.2 6 10.5 5.9 3.2 0 6.2-1.2 8.5-3.5 1.2-1.1 3.1-1.1 4.2 0 .6.6.9 1.3.9 2.1s-.3 1.5-.9 2.1c-3.4 3.3-8 5.2-12.7 5.1zm.4 10c-3 0-6-.5-8.9-1.5-.2-.1-.3-.2-.4-.4-.1-.1-.1-.3 0-.5 0-.2.2-.4.3-.4.2-.1.4-.1.6-.1 9.5 3.2 19.9.8 27-6.2.3-.2.8-.2 1.1 0 .1.2.2.4.2.6 0 .2-.1.3-.2.5-5.3 5.1-12.3 8-19.7 7.9v.1zm-.1-3.2c-2.2 0-4.4-.3-6.5-.9-.1-.1-.3-.2-.4-.4-.1-.2-.1-.4-.1-.6.2-.3.6-.6 1-.5 1.9.6 3.9.9 6 .9 6.1 0 12-2.4 16.4-6.7.3-.3.8-.3 1.1 0 .1.1.2.3.2.5s-.1.4-.2.5c-4.7 4.6-11 7.2-17.5 7.2zm-.2-3.2c-1.3 0-2.6-.1-3.9-.4-.4-.1-.7-.4-.6-.8.1-.4.5-.7.9-.6 1.2.2 2.4.3 3.6.3 5.4 0 10.5-2 14.3-5.8.3-.3.8-.3 1.1 0 .1.1.2.3.2.5s-.1.4-.2.5c-4.1 4.1-9.6 6.3-15.4 6.3zM65.6 67.3c-.2 0-.4-.1-.6-.3-.1-.1-.1-.3-.1-.5s.1-.4.3-.5c5.8-4.2 13-5.9 20.1-4.9.2 0 .3.1.5.3.1.1.1.3.1.5s-.1.4-.3.5c-.1.1-.3.2-.5.2-6.7-1-13.5.7-19 4.6-.1.1-.3.1-.5.1zm2 2.5c-.3 0-.5-.1-.6-.3-.2-.2-.2-.4-.2-.6.1-.2.2-.4.3-.5 4.2-2.9 9.2-4.4 14.3-4.4 1.1 0 2.3.1 3.5.2.2 0 .3.1.4.3.2.2.2.4.2.6-.1.4-.5.6-.9.6-5.8-.8-11.7.6-16.6 3.9-.1.1-.3.2-.4.2zm1.9 2.4c-.3 0-.5-.1-.6-.3-.1-.2-.2-.4-.1-.5 0-.2.1-.4.3-.5 3.6-2.5 7.9-3.8 12.3-3.8 1 0 2 .1 3.1.2.2.1.4.3.5.5.1.2.1.5-.1.7-.2.2-.4.3-.7.3-.9-.2-1.9-.2-2.8-.2-4.1 0-8.1 1.2-11.5 3.5-.1.1-.3.1-.4.1z"/></g></svg>