<svg xmlns="http://www.w3.org/2000/svg" viewBox="0 0 1000 1000"><path d="M841 651L750 700C745 703 739 702 735 699 731 696 728 691 729 686L731 661C693 651 659 631 633 602 637 630 638 659 634 687L649 689C654 689 659 693 661 697 663 702 662 708 659 712L598 786C594 791 589 793 583 793 582 793 582 793 581 793 575 793 569 789 566 783L520 700C517 695 517 689 520 685 523 680 528 678 534 678L546 679C546 672 547 666 547 659 515 692 468 707 422 696 424 702 425 707 427 712L442 707C447 705 452 706 456 710 460 713 461 719 460 724L432 827C430 833 426 837 420 839 414 841 408 840 403 837L318 773C314 770 312 764 313 759 313 754 317 750 322 748L344 740C319 680 310 614 321 549 322 538 325 527 330 517 305 527 278 532 251 533L250 547C250 553 247 557 242 560 237 562 232 561 227 558L156 503C151 499 148 493 149 486 149 480 152 474 158 471L235 425C240 422 246 422 250 425 255 428 257 433 257 438L257 446C287 441 315 429 340 411 324 388 314 362 311 334L301 334C296 334 291 331 288 326 286 322 286 316 289 311L337 241C341 235 347 232 353 232L353 232C359 232 365 235 369 241L417 311C420 316 420 322 418 326 415 331 410 334 405 334L392 334C397 347 404 360 414 370 436 358 459 349 483 343 495 318 500 289 499 261L483 261C478 261 473 258 471 254 468 249 469 243 471 239L520 168C523 163 529 160 536 160L536 160C542 160 548 163 551 168L599 239C602 243 603 249 600 254 598 258 593 261 587 261L579 261C582 285 580 310 573 333 584 334 596 335 607 336L609 316C610 310 613 306 618 304 623 302 629 303 633 306L713 372C718 376 720 382 720 389 719 395 716 400 710 404L706 406C720 428 728 453 728 479 728 504 719 528 703 548 705 550 707 552 709 554 718 563 728 570 740 575L741 562C742 557 745 552 750 550 755 548 761 549 765 552L844 619C849 623 852 630 851 636 850 642 847 648 841 651ZM541 698L583 774 638 707 625 706C623 706 622 706 621 705L598 703C593 703 589 699 589 694 589 690 592 685 597 684 598 670 599 656 599 642 599 641 599 640 600 639 600 639 601 639 602 639 603 640 603 641 603 641 604 656 603 670 601 684L606 685C609 667 609 650 608 632 608 632 608 631 609 631 609 630 610 630 610 630 611 630 611 630 612 630 612 631 613 631 613 632 614 650 613 668 611 685L615 686C624 618 608 549 570 492L563 497C589 538 591 591 566 633 567 653 566 672 563 691L562 700 541 698ZM452 681C493 681 531 658 550 622 570 586 569 542 547 507L471 559C467 562 461 562 456 559 452 557 449 552 449 547L449 529C432 530 417 543 414 559 410 576 418 593 433 602 448 610 467 607 479 595 481 593 485 592 488 592 491 593 494 596 495 599 496 603 495 606 492 609 474 627 446 631 423 618 401 606 389 580 395 554 401 529 423 511 449 510L449 504C437 504 425 508 415 515 414 515 414 515 413 515 412 515 411 515 411 514 411 513 411 512 412 511 423 503 436 499 449 499L449 493C434 494 420 498 409 507 408 508 406 507 405 506 405 505 405 504 406 503 418 494 433 489 449 488L449 483C432 483 416 489 402 499 402 499 401 499 400 499 399 499 399 498 399 497 399 496 399 495 400 495 414 484 431 479 449 478 451 474 455 471 460 472 464 472 468 476 468 481L468 538 544 486C544 486 544 486 544 486 544 486 544 486 545 486L566 471 499 425 499 425 468 404 468 455 458 455C455 455 454 455 452 455 396 455 350 494 341 547 341 547 341 547 341 547 340 549 340 550 340 552 335 585 345 617 366 642 388 666 419 681 452 681L452 681ZM541 431L547 435C564 433 581 434 598 436L599 431C580 429 560 429 541 431ZM599 426L600 422C576 420 553 420 530 423L535 427C556 424 578 424 599 426ZM449 394C448 394 448 394 448 395 448 395 448 395 449 395L449 395C449 395 449 394 449 394ZM366 742L370 752 337 763 414 821 439 728 392 744C387 746 381 744 380 739 378 734 380 728 385 726 383 719 381 712 379 705 378 704 379 702 380 702 382 702 383 702 383 704 385 711 387 718 390 725L393 724C390 715 387 706 385 698 385 697 386 696 387 695 388 695 389 696 390 697 392 705 395 714 398 722L401 721C397 711 394 701 392 691 392 690 392 689 394 689 395 688 396 689 397 690 399 700 402 710 405 720L409 718C406 709 403 699 401 689 374 678 351 658 337 633 340 671 350 708 366 742ZM247 466L236 468 237 446 168 488 232 537 234 494C235 491 237 488 240 486 243 485 246 485 249 487 252 489 254 492 254 496L252 514C286 513 318 504 347 487 357 474 369 463 384 454 383 454 382 453 382 453 371 461 359 468 348 475 347 475 347 475 346 475 345 475 344 474 344 473 344 472 344 471 345 470 357 464 367 457 378 450 377 449 375 448 374 447 364 454 353 461 341 467 341 467 340 468 340 468 339 468 338 467 338 466 337 465 338 464 339 463 350 457 360 451 370 444 369 443 368 442 367 440 357 448 346 454 334 460 333 461 332 460 331 459 331 458 331 456 332 456 343 450 353 444 363 437 362 436 361 435 360 434 350 441 339 447 328 453 327 453 326 453 326 453 325 452 324 451 325 450 325 450 325 449 326 448 336 443 347 437 356 431 355 429 354 428 352 426 321 449 285 462 247 466ZM402 384C388 370 377 353 372 334L367 334C369 346 374 357 381 368 381 369 381 370 380 371 379 372 377 371 377 370 370 359 365 347 362 334L356 334C359 348 365 362 374 375 374 375 374 376 374 377 374 378 373 378 372 378 371 378 370 378 370 377 361 364 354 349 351 333 347 332 344 328 344 323 345 318 349 315 354 315L379 315C379 315 380 315 380 315L396 315 353 251 310 315 329 315 329 324C331 354 342 383 361 407 361 407 361 407 361 407 361 407 362 408 362 408 365 412 368 415 372 419 381 429 392 437 404 445 418 439 433 436 449 436L449 416C431 409 415 398 402 384L402 384ZM578 242L536 179 492 242 514 242 517 251C520 280 516 310 506 338 521 336 537 334 553 333 556 324 558 315 559 306 559 306 559 305 559 305 560 302 560 300 560 298 562 286 561 273 560 261L557 261C558 273 558 285 556 296 556 297 555 298 554 298 554 298 554 298 554 298 553 298 552 298 552 297 552 297 552 296 552 296 553 284 553 273 552 261L548 261C548 270 548 278 548 287 548 288 546 289 545 289 545 289 545 289 545 289 544 289 544 288 543 288 543 288 543 287 543 286 543 278 543 270 543 261L542 261C537 261 533 257 533 252 533 246 537 242 542 242L578 242 578 242ZM628 326L625 357 614 357C597 354 579 352 561 352 560 352 560 352 559 352 514 353 470 363 430 383 431 384 432 385 434 386 455 376 478 368 501 363 502 363 503 363 503 363 504 364 504 364 504 365 504 366 504 368 502 368 480 372 459 380 438 389 440 390 441 391 443 392 445 390 448 389 450 388 454 382 461 379 468 381 481 377 495 373 509 371 509 370 510 371 511 371 511 371 511 372 512 372 512 374 511 375 510 375 497 378 485 381 473 385L478 388C490 384 503 380 516 378 517 378 518 378 518 379 519 379 519 379 519 380 519 381 519 381 519 382 518 382 518 383 517 383 506 385 494 388 483 391L487 394C499 390 512 388 524 386 525 386 527 387 527 388 527 389 526 390 525 391 514 392 503 394 492 397L497 400C508 397 520 395 532 394 533 394 534 394 534 395 535 395 535 396 535 397 534 398 533 398 533 398 522 400 512 402 502 404L507 407C538 401 570 400 601 403L602 395C603 390 607 386 613 386 618 387 622 391 621 396L618 433 701 387 628 326ZM709 479C709 456 702 434 689 415L680 420C686 428 691 437 694 446 694 446 694 447 694 448 693 448 693 449 692 449 692 449 692 449 691 449 690 449 689 448 689 447 686 438 681 430 675 423L671 425C678 433 683 443 686 453 686 455 686 456 684 456 684 456 684 456 684 456 683 456 682 456 682 455 679 445 674 435 667 427L663 429C674 442 680 457 680 473 680 476 679 478 677 480 675 482 673 483 670 483L670 483C665 483 661 479 661 473 661 461 656 448 646 439 646 439 646 439 646 439L619 454C615 456 609 456 605 453 600 451 598 446 598 440 583 439 568 438 553 439L560 443C570 443 581 443 592 444 593 444 594 445 594 447 594 448 593 449 592 449 591 449 591 449 591 449 583 448 575 448 566 448L573 453C576 453 580 453 583 453 584 453 585 454 585 455 585 457 584 458 583 458 583 458 583 458 583 458 582 458 581 458 580 458 585 463 587 471 584 479 603 506 617 537 626 569 673 565 709 526 709 479ZM759 573L756 601 745 597C727 592 709 582 696 568 694 566 692 564 690 562 689 563 687 564 685 566 687 568 690 571 692 573 697 578 702 582 707 586 708 587 709 588 708 589 707 590 706 591 705 590 699 586 694 582 689 577 686 574 684 571 681 568 680 570 678 571 676 572 679 575 681 578 684 580 689 585 694 589 700 593 701 594 701 596 701 597 700 598 698 598 697 597 692 593 686 589 681 584 678 581 675 578 672 574 670 575 669 576 667 577 670 581 673 584 677 587 682 592 687 597 693 601 694 601 694 603 693 604 693 605 691 605 690 605 684 600 678 596 673 591 669 587 666 583 662 579 661 580 659 581 657 582 660 586 665 590 669 594 674 599 680 604 686 608 687 609 687 610 686 611 685 612 684 613 683 612 677 608 671 603 665 598 661 593 656 588 652 583 649 584 647 585 644 585 667 613 698 632 733 642L735 624C735 622 736 619 738 618 740 616 743 615 745 615 748 616 750 617 752 619 753 621 754 623 754 626L749 679 832 634 759 573ZM426 649C456 659 490 651 513 628 513 627 515 627 516 628 517 629 517 631 516 632 492 656 456 664 424 653 423 653 423 651 423 650 423 649 425 648 426 649ZM452 647C445 647 439 646 432 645 431 644 430 644 430 643 430 642 430 641 431 640 431 640 432 640 433 640 439 642 446 643 452 643 472 643 491 635 505 621 506 620 508 620 509 621 509 622 509 623 509 624 494 639 473 648 452 647L452 647ZM452 637C448 637 444 637 439 636 439 636 438 635 438 635 438 634 437 634 438 633 438 632 438 632 439 632 439 631 440 631 440 631 444 632 448 632 452 632 469 632 486 626 498 613 499 612 500 612 501 613 502 614 502 616 501 617 488 630 470 637 452 637L452 637Z" fill="#333"/></svg>
